<?xml version="1.0" encoding="UTF-8"?>
<svg version="1.1" xmlns="http://www.w3.org/2000/svg" width="904" height="350">
<path d="M0 0 C6.32429573 -0.09332628 12.64133551 -0.04907723 18.96533203 0.05029297 C20.22909668 0.06817871 21.49286133 0.08606445 22.79492188 0.10449219 C68.59754527 0.79857328 114.37901083 3.59699091 159.96533203 8.05029297 C160.99469879 8.15020538 160.99469879 8.15020538 162.04486084 8.25213623 C208.62001483 12.8151376 208.62001483 12.8151376 221.40283203 27.92529297 C225.83639855 33.49012438 229.43469403 38.57166605 230.52783203 45.73779297 C229.77309393 50.18236176 228.51827406 51.27899819 224.96533203 54.05029297 C208.18891171 65.77080579 188.5370964 70.8310055 168.61254883 73.95605469 C167.53319659 74.12677427 166.45384436 74.29749386 165.34178448 74.47338676 C152.43894933 76.48460827 139.49531897 78.17993857 126.54736328 79.87060547 C123.90373976 80.21849623 121.26015616 80.56667778 118.61662292 80.91525269 C112.43315191 81.73001395 106.24924645 82.5414227 100.06514806 83.35140693 C91.00142875 84.53869684 81.93833575 85.7307512 72.87530804 86.92330742 C72.20381515 87.01166394 71.53232226 87.10002047 70.8404811 87.19105446 C69.49991952 87.36745007 68.1593592 87.54385518 66.81880015 87.72027004 C62.33225132 88.31054957 57.84546474 88.89899844 53.3585968 89.48684692 C46.89327876 90.33463338 40.4287427 91.18808246 33.96533203 92.05029297 C32.74060999 92.21342106 32.74060999 92.21342106 31.49114609 92.37984467 C29.46199863 92.65208079 27.43370526 92.93066425 25.40551758 93.20996094 C24.37259079 93.35190887 23.339664 93.49385681 22.2754364 93.6401062 C19.94815021 93.94056899 19.94815021 93.94056899 17.96533203 95.05029297 C22.1638402 96.20927004 26.31036429 96.32408373 30.64111328 96.47998047 C32.37355873 96.55364697 34.10598 96.62788369 35.83837891 96.70263672 C38.55688103 96.81591786 41.27533074 96.9252017 43.99438477 97.02441406 C46.62728381 97.12246916 49.25901927 97.2374876 51.89111328 97.35498047 C53.09771355 97.39267044 53.09771355 97.39267044 54.32868958 97.43112183 C60.24786187 97.71334044 65.08714232 98.73192904 69.83178711 102.55371094 C73.60259458 107.09296378 75.72382249 111.62306026 77.65283203 117.17529297 C80.25134794 125.19966469 80.25134794 125.19966469 84.96533203 132.05029297 C90.91000515 132.36657546 96.56238889 131.64813923 102.44702148 130.83056641 C137.28132741 126.00868683 172.24245359 123.67831351 207.40283203 123.61279297 C208.64110748 123.60671021 209.87938293 123.60062744 211.15518188 123.59436035 C256.79525837 123.44682397 256.79525837 123.44682397 266.71142578 132.67529297 C267.12521484 133.12904297 267.53900391 133.58279297 267.96533203 134.05029297 C268.60599609 133.12087891 269.24666016 132.19146484 269.90673828 131.23388672 C277.82878053 119.85517697 285.15460427 110.90450745 298.46533203 105.67529297 C308.11346253 103.95241252 315.69915738 105.15697122 324.09033203 110.37060547 C326.1457149 111.83988307 328.05577723 113.39637837 329.96533203 115.05029297 C330.61115234 115.59041016 331.25697266 116.13052734 331.92236328 116.68701172 C349.02126107 132.23453022 357.30881206 159.5878822 358.96533203 182.05029297 C359.13101295 186.65882133 359.19312413 191.26312419 359.20556641 195.87402344 C359.21518633 198.01782344 359.24624358 200.1606266 359.27783203 202.30419922 C359.43597047 222.75667215 355.11896386 243.39090145 341.19970703 259.03466797 C329.81369967 270.22931386 314.06694207 270.16955339 299.11517334 271.22039795 C292.61363147 271.68094179 286.11796906 272.21409108 279.62158203 272.74169922 C278.96141964 272.79467667 278.30125725 272.84765411 277.62108994 272.90223694 C196.1081 279.45123395 115.69901847 294.16119066 36.96533203 316.05029297 C36.2518158 316.24774109 35.53829956 316.44518921 34.80316162 316.64862061 C19.65180747 320.84162512 4.68879226 325.42973861 -10.18896484 330.50152588 C-41.59423488 341.19575904 -71.93275436 345.42492588 -105.05841064 345.5324707 C-112.82040512 345.55882446 -120.58184327 345.64246404 -128.34326172 345.73779297 C-129.11171921 345.74705307 -129.8801767 345.75631317 -130.67192078 345.76585388 C-144.20061577 345.9381911 -157.66546515 346.54614821 -171.15966797 347.55029297 C-172.07492249 347.61793854 -172.990177 347.68558411 -173.9331665 347.75527954 C-175.73936126 347.88900979 -177.54555432 348.0227628 -179.35174561 348.15653992 C-180.22035217 348.22073624 -181.08895874 348.28493256 -181.98388672 348.35107422 C-183.25610077 348.44561638 -183.25610077 348.44561638 -184.55401611 348.54206848 C-275.76566408 355.13584761 -370.11877033 347.48682849 -538.03466797 306.05029297 C-540.15265549 303.66182652 -540.95952261 302.3577058 -541.72216797 299.23779297 C-540.77116377 294.82859169 -538.31051599 293.5269951 -534.89404297 290.77685547 C-532.77659781 289.0664828 -532.77659781 289.0664828 -531.84716797 285.92529297 C-532.08898751 282.21739331 -532.6406322 280.93721845 -535.03466797 278.05029297 C-536.56206947 276.88551197 -538.10535034 275.74140577 -539.65966797 274.61279297 C-542.55929953 272.41911746 -543.87387269 271.40111903 -545.40966797 268.05029297 C-545.03466797 265.05029297 -545.03466797 265.05029297 -542.53466797 262.05029297 C-539.11760576 257.62709578 -539.85530204 253.82789749 -540.43701172 248.46826172 C-540.74643492 246.12112028 -541.07269178 243.77657255 -541.3984375 241.43164062 C-543.13824292 228.80879707 -544.36067358 216.36791401 -544.47216797 203.61279297 C-544.50515991 201.81056274 -544.50515991 201.81056274 -544.53881836 199.97192383 C-544.51489057 189.6358424 -541.67280251 182.37720201 -536.34716797 173.61279297 C-532.07348117 166.40510104 -528.53877162 158.8961096 -525.01513672 151.30029297 C-524.67272949 150.56681641 -524.33032227 149.83333984 -523.97753906 149.07763672 C-523.17106206 147.34356499 -522.37698144 145.60373715 -521.58544922 143.86279297 C-518.21674212 137.75329899 -514.03881812 133.91594749 -508.28466797 130.17529297 C-507.29805176 129.53140625 -507.29805176 129.53140625 -506.29150391 128.87451172 C-456.33795095 97.09660262 -388.10440177 87.59540192 -330.83691406 77.29443359 C-301.13322384 71.94298286 -274.55068172 62.55543873 -247.34716797 49.67529297 C-214.28634947 34.02902029 -180.85798147 22.6259381 -145.03466797 15.05029297 C-143.44162842 14.71070557 -143.44162842 14.71070557 -141.81640625 14.36425781 C-95.19086116 4.61775818 -47.53892779 0.78785351 0 0 Z M-138.03466797 30.05029297 C-139.1423201 30.25420654 -140.24997223 30.45812012 -141.39118958 30.66821289 C-143.92354569 31.15571791 -146.41004781 31.72927364 -148.90966797 32.36279297 C-149.86196289 32.60368652 -150.81425781 32.84458008 -151.79541016 33.09277344 C-173.98718627 39.03417649 -195.72582951 47.56669897 -216.84716797 56.55029297 C-217.94770508 57.01773926 -219.04824219 57.48518555 -220.18212891 57.96679688 C-232.14588457 62.95444935 -232.14588457 62.95444935 -242.03466797 71.05029297 C-242.03466797 71.71029297 -242.03466797 72.37029297 -242.03466797 73.05029297 C-237.17686811 74.58730989 -232.83734862 75.37247314 -227.71435547 75.64794922 C-227.02614716 75.68686783 -226.33793884 75.72578644 -225.62887573 75.7658844 C-223.38950194 75.88994591 -221.1497291 76.00189119 -218.90966797 76.11279297 C-217.33966424 76.19564677 -215.76967741 76.27882143 -214.19970703 76.36230469 C-204.3980462 76.87374801 -194.59299789 77.31359312 -184.78466797 77.67529297 C-183.73134277 77.71533447 -182.67801758 77.75537598 -181.59277344 77.79663086 C-179.37553871 77.86956844 -177.15771548 77.92579735 -174.93969727 77.96875 C-172.89350586 78.0114776 -170.84708292 78.05849422 -168.80239868 78.14788818 C-149.81797612 78.97431045 -131.45355846 76.11024068 -112.74291992 73.30084229 C-109.41359681 72.80482957 -106.08207141 72.32472186 -102.7503643 71.84502792 C-92.16689987 70.32013 -81.59606223 68.72120484 -71.03466797 67.05029297 C-70.23899666 66.92443314 -69.44332535 66.7985733 -68.62354279 66.66889954 C-63.94021012 65.92413404 -59.26105508 65.15798373 -54.58568764 64.36471939 C-53.15851611 64.12392786 -51.73062604 63.88734606 -50.3019619 63.6555748 C-37.92205794 61.63581188 -26.85666347 57.81268153 -15.77685547 51.97607422 C-15.06875229 51.61014664 -14.36064911 51.24421906 -13.63108826 50.86720276 C-11.38716991 49.7055637 -9.14836605 48.53445536 -6.90966797 47.36279297 C-5.35811512 46.55706556 -3.80627392 45.75189315 -2.25415039 44.94726562 C2.15724788 42.65761314 6.56215021 40.35569764 10.96533203 38.05029297 C12.68067139 37.15334717 12.68067139 37.15334717 14.43066406 36.23828125 C19.61688712 33.52391061 24.79618834 30.79704756 29.96533203 28.05029297 C29.96533203 27.72029297 29.96533203 27.39029297 29.96533203 27.05029297 C11.16162322 26.9798561 -7.6420584 26.92713643 -26.44587231 26.89485645 C-35.17904793 26.87946233 -43.91214105 26.85851758 -52.64526367 26.82397461 C-60.2671648 26.79384163 -67.88900611 26.77466399 -75.51096517 26.76802748 C-79.53756429 26.76415517 -83.56399243 26.75521549 -87.59053612 26.7331028 C-104.60986003 26.64325459 -121.25168624 26.81118895 -138.03466797 30.05029297 Z M40.65283203 48.48779297 C39.98016296 48.65518982 39.3074939 48.82258667 38.61444092 48.99505615 C30.15119426 51.09067274 30.15119426 51.09067274 21.96533203 54.05029297 C21.96533203 54.71029297 21.96533203 55.37029297 21.96533203 56.05029297 C50.01380881 56.22417954 77.99278701 55.87641723 106.02232742 54.83912277 C108.83413954 54.73572234 111.64603761 54.63505445 114.45797729 54.53518677 C139.14231545 53.65757788 163.82414054 52.70589954 188.49847031 51.57956314 C190.51318814 51.48845518 192.52800956 51.40007399 194.5428772 51.31234741 C198.22715452 51.14938481 201.91068945 50.97497402 205.59423828 50.79638672 C207.18785187 50.72771393 207.18785187 50.72771393 208.81365967 50.65765381 C214.17659271 50.38226144 218.87664156 49.78957842 223.96533203 48.05029297 C225.13740016 43.9480545 224.88353183 41.84600348 222.96533203 38.05029297 C210.75713681 25.69075648 190.74543239 27.20499746 174.65771484 27.01025391 C129.25707565 26.77097176 84.4785022 37.54963773 40.65283203 48.48779297 Z M27.96533203 70.05029297 C27.96533203 70.71029297 27.96533203 71.37029297 27.96533203 72.05029297 C43.37877895 78.85034308 66.45976927 76.95717402 81.96533203 71.05029297 C81.96533203 69.73029297 81.96533203 68.41029297 81.96533203 67.05029297 C73.98023046 65.04656237 66.29841264 64.71570448 58.09033203 64.73779297 C56.90052734 64.72167969 55.71072266 64.70556641 54.48486328 64.68896484 C45.24784902 64.68391729 36.21530732 65.59133742 27.96533203 70.05029297 Z M-324.03466797 84.05029297 C-324.68884705 84.19078064 -325.34302612 84.33126831 -326.01702881 84.47601318 C-373.86485774 94.76737455 -422.74131676 108.85498618 -466.03466797 132.05029297 C-466.70143555 132.4030127 -467.36820313 132.75573242 -468.05517578 133.11914062 C-477.34069011 138.05819764 -485.81950628 143.46882821 -494.03466797 150.05029297 C-491.38187306 152.70308788 -488.65119376 153.08579291 -485.09716797 153.86279297 C-484.33428467 154.03020996 -483.57140137 154.19762695 -482.78540039 154.37011719 C-468.34851681 157.36874661 -453.65411333 159.18807358 -439.03466797 161.05029297 C-437.96023438 161.18741699 -436.88580078 161.32454102 -435.77880859 161.46582031 C-423.01711276 163.01408218 -410.24973943 163.26692417 -397.40966797 163.36279297 C-396.2577446 163.37737045 -396.2577446 163.37737045 -395.08255005 163.39224243 C-380.22476106 163.55220495 -368.35579169 161.1574448 -354.89331055 154.46984863 C-339.65394249 146.93023484 -324.06213669 140.733331 -308.03466797 135.05029297 C-306.86597168 134.63328125 -305.69727539 134.21626953 -304.49316406 133.78662109 C-272.69058128 122.54102432 -240.01753072 114.03219976 -207.03466797 107.05029297 C-207.03466797 106.72029297 -207.03466797 106.39029297 -207.03466797 106.05029297 C-218.63950593 106.58928804 -230.08530897 107.62172172 -241.59716797 109.17529297 C-242.40425201 109.28322174 -243.21133606 109.39115051 -244.0428772 109.50234985 C-284.65865461 114.96984886 -324.45626384 123.45829674 -364.03466797 134.05029297 C-292.87981021 107.58639759 -292.87981021 107.58639759 -260.28466797 99.23779297 C-259.46708008 99.02558105 -258.64949219 98.81336914 -257.80712891 98.59472656 C-240.02722611 94.38484798 -221.15191844 94.09409759 -202.99047852 92.65344238 C-200.21550293 92.4325318 -197.44078262 92.20850438 -194.66605759 91.98447227 C-167.48353749 89.79140863 -167.48353749 89.79140863 -154.03466797 89.05029297 C-157.86251737 86.61904011 -161.96070666 86.46272838 -166.36279297 86.08544922 C-167.20355881 86.00756165 -168.04432465 85.92967407 -168.91056824 85.84942627 C-171.70118403 85.59454712 -174.49275002 85.35296081 -177.28466797 85.11279297 C-178.24607697 85.02758392 -179.20748596 84.94237488 -180.19802856 84.85458374 C-210.42056754 82.17917237 -240.72401186 80.37134763 -271.03466797 79.05029297 C-272.78565796 78.97210327 -272.78565796 78.97210327 -274.57202148 78.89233398 C-291.59276096 78.23667719 -307.42317069 80.44669555 -324.03466797 84.05029297 Z M-16.51123047 101.98779297 C-17.3735025 102.29990723 -18.23577454 102.61202148 -19.12417603 102.93359375 C-21.971429 103.96685086 -24.81567477 105.00809974 -27.65966797 106.05029297 C-28.62787476 106.40333496 -29.59608154 106.75637695 -30.59362793 107.12011719 C-51.5385614 114.76089509 -72.30881625 122.83654351 -93.03466797 131.05029297 C-93.03466797 131.38029297 -93.03466797 131.71029297 -93.03466797 132.05029297 C-91.99310547 132.07607422 -90.95154297 132.10185547 -89.87841797 132.12841797 C-59.87230519 133.1870836 -40.67508793 146.89097977 -20.03466797 168.05029297 C-18.75394992 165.48885687 -19.33670968 164.77519862 -20.03466797 162.05029297 C-20.12591471 160.17705109 -20.16472311 158.30074906 -20.15966797 156.42529297 C-20.16224609 155.46365234 -20.16482422 154.50201172 -20.16748047 153.51123047 C-20.03466797 151.05029297 -20.03466797 151.05029297 -19.03466797 149.05029297 C-17.36865234 148.4753418 -17.36865234 148.4753418 -15.12841797 148.00732422 C-13.82372559 147.73239136 -13.82372559 147.73239136 -12.49267578 147.4519043 C-11.5165332 147.25749756 -10.54039062 147.06309082 -9.53466797 146.86279297 C-8.51469727 146.65356201 -7.49472656 146.44433105 -6.44384766 146.22875977 C0.86411307 144.76769337 8.19549499 143.47893394 15.54345703 142.23779297 C16.92017578 142.00511971 16.92017578 142.00511971 18.32470703 141.76774597 C22.96401254 140.98655002 27.60493426 140.21691144 32.24853516 139.46166992 C33.98226412 139.17483493 35.71598829 138.88797096 37.44970703 138.60107422 C38.24983215 138.47414185 39.04995728 138.34720947 39.87432861 138.21643066 C43.53706676 137.6056933 46.77415136 137.01372898 49.96533203 135.05029297 C45.3355737 124.93907547 31.9879379 114.79622176 21.84033203 110.55029297 C18.26937095 109.31509168 14.6541599 108.54032422 10.96533203 107.73779297 C5.33540717 106.44472636 1.52023146 104.04210975 -2.97607422 100.47607422 C-7.37248554 97.4311214 -11.96870963 100.32393238 -16.51123047 101.98779297 Z M302.75830078 131.68701172 C296.15188632 140.39481291 291.01034304 151.29385713 288.96533203 162.05029297 C289.65293564 165.02564992 289.65293564 165.02564992 291.46533203 166.23779297 C293.87371468 169.147922 294.07286561 172.40087218 293.96533203 176.05029297 C292.68718339 180.23978019 291.69035492 182.46015806 288.27783203 185.23779297 C285.04079941 189.17472453 285.40511209 192.34668262 285.39892578 197.30810547 C285.73205128 200.1070768 285.73205128 200.1070768 287.62548828 201.85498047 C290.38992722 203.26719802 292.91063553 203.5950546 295.96533203 204.05029297 C295.91034546 205.65300049 295.91034546 205.65300049 295.85424805 207.28808594 C295.72647807 211.29465852 295.64680646 215.30105569 295.58081055 219.30908203 C295.54584783 221.03562815 295.49825815 222.76197067 295.43725586 224.48779297 C294.87126876 237.7370336 294.87126876 237.7370336 301.04663086 249.14453125 C308.89567399 257.17556215 308.89567399 257.17556215 319.34033203 260.36279297 C327.24105253 259.68169637 332.74169674 255.83029179 337.96533203 250.05029297 C343.92055465 241.85107342 347.31316415 232.74253466 349.96533203 223.05029297 C350.28630859 221.92107422 350.60728516 220.79185547 350.93798828 219.62841797 C357.05357631 193.57316852 354.79190011 161.25297162 341.11767578 137.89404297 C336.43387904 130.96612095 331.00528349 125.73027679 322.96533203 123.05029297 C314.62188423 122.23230789 308.36575173 125.6946099 302.75830078 131.68701172 Z M-235.84716797 142.80029297 C-236.62058533 142.9054422 -237.39400269 143.01059143 -238.19085693 143.118927 C-255.03986058 145.4167093 -271.80635365 148.26804462 -288.56689072 151.13056946 C-290.62291939 151.48152022 -292.67920098 151.83095959 -294.73550415 152.18029785 C-309.12383169 154.63080317 -323.46600907 157.25092932 -337.74560547 160.27294922 C-338.92659821 160.52080673 -340.10759094 160.76866425 -341.32437134 161.02403259 C-342.412612 161.25965408 -343.50085266 161.49527557 -344.62207031 161.73803711 C-345.57447601 161.94352676 -346.52688171 162.14901642 -347.50814819 162.36073303 C-349.89689399 163.01269049 -351.87337936 163.85632698 -354.03466797 165.05029297 C-354.03466797 165.38029297 -354.03466797 165.71029297 -354.03466797 166.05029297 C-349.08466797 166.05029297 -344.13466797 166.05029297 -339.03466797 166.05029297 C-339.18935547 167.93748047 -339.18935547 167.93748047 -339.34716797 169.86279297 C-339.32980599 173.11527111 -339.32040687 173.73776605 -337.03466797 176.23779297 C-333.55519583 177.18015001 -331.40205194 176.77631682 -328.10498047 175.34716797 C-324.34688441 172.99303987 -321.5149028 169.70088862 -319.03466797 166.05029297 C-319.03466797 165.39029297 -319.03466797 164.73029297 -319.03466797 164.05029297 C-317.75849609 163.99421875 -317.75849609 163.99421875 -316.45654297 163.93701172 C-305.52682677 163.34401648 -294.83528145 161.79374225 -284.03466797 160.05029297 C-283.98133301 160.66517578 -283.92799805 161.28005859 -283.87304688 161.91357422 C-283.79489746 162.72181641 -283.71674805 163.53005859 -283.63623047 164.36279297 C-283.56227051 165.16330078 -283.48831055 165.96380859 -283.41210938 166.78857422 C-282.84172505 170.20645288 -281.66632347 171.83416202 -279.03466797 174.05029297 C-275.67567639 175.21302082 -273.44406922 175.55801035 -270.05029297 174.33544922 C-264.061079 171.07388115 -260.32739904 165.919944 -257.03466797 160.05029297 C-256.67429662 158.72401194 -256.33605121 157.39120946 -256.03466797 156.05029297 C-255.48343262 156.05552979 -254.93219727 156.0607666 -254.36425781 156.06616211 C-243.64303624 156.15346127 -232.93616357 156.10964414 -222.22216797 155.67529297 C-220.89161377 155.62900757 -220.89161377 155.62900757 -219.53417969 155.58178711 C-209.50109819 155.42216915 -209.50109819 155.42216915 -201.03466797 151.05029297 C-200.96518232 148.04736226 -200.96518232 148.04736226 -202.03466797 145.05029297 C-211.32565802 138.10039675 -225.11410309 141.28378133 -235.84716797 142.80029297 Z M-134.03466797 181.05029297 C-134.84162109 181.76572266 -135.64857422 182.48115234 -136.47998047 183.21826172 C-152.41089213 198.15044651 -163.08274419 220.74535224 -164.16113281 242.61499023 C-164.87850732 269.20582429 -160.00222941 292.51090411 -142.03466797 313.05029297 C-141.20322266 314.00742187 -141.20322266 314.00742187 -140.35498047 314.98388672 C-130.09556891 326.00416373 -114.52288706 333.72211177 -99.42138672 334.35107422 C-80.5527242 334.58700685 -64.31764206 329.87102474 -50.03466797 317.05029297 C-49.23673828 316.34517578 -48.43880859 315.64005859 -47.61669922 314.91357422 C-30.22881714 298.60401041 -19.99652316 274.85620885 -19.03466797 251.05029297 C-18.98310547 250.26396484 -18.93154297 249.47763672 -18.87841797 248.66748047 C-17.99545319 224.60669032 -26.70368634 200.6756357 -43.03466797 183.05029297 C-55.19461063 170.74075523 -71.04692204 163.18046136 -88.53466797 162.80029297 C-105.53475424 163.10845163 -121.47641818 169.60569929 -134.03466797 181.05029297 Z M-220.34716797 172.17529297 C-221.32427734 173.00029297 -222.30138672 173.82529297 -223.30810547 174.67529297 C-224.84654086 176.01536277 -226.3783053 177.36348142 -227.88623047 178.73779297 C-259.60835245 207.49084935 -325.00742484 203.61456541 -364.85986328 201.79199219 C-373.14113557 201.34762217 -381.49877676 200.63824274 -389.49951172 198.34326172 C-392.8856739 197.95194868 -394.77525116 198.9335263 -397.84716797 200.36279297 C-402.57249587 202.46553468 -406.98277285 203.98162285 -412.03466797 205.05029297 C-411.54095703 204.51919922 -411.04724609 203.98810547 -410.53857422 203.44091797 C-409.89791016 202.73451172 -409.25724609 202.02810547 -408.59716797 201.30029297 C-407.95908203 200.60419922 -407.32099609 199.90810547 -406.66357422 199.19091797 C-405.03947056 197.05660429 -404.35082709 195.69453292 -404.03466797 193.05029297 C-406.18780009 190.89716084 -410.62859254 191.10502793 -413.60498047 190.66748047 C-415.45249174 190.38764991 -417.2999844 190.10769647 -419.14746094 189.82763672 C-420.12793396 189.68052246 -421.10840698 189.5334082 -422.11859131 189.38183594 C-435.2591326 187.40910641 -448.38865974 185.40896719 -461.45654297 182.99560547 C-462.34860443 182.83123993 -463.24066589 182.66687439 -464.15975952 182.49752808 C-468.38733371 181.71449216 -472.61114488 180.91496391 -476.83203125 180.09667969 C-478.35526546 179.81016857 -479.87853807 179.52386147 -481.40185547 179.23779297 C-482.07601501 179.10172638 -482.75017456 178.96565979 -483.44476318 178.82546997 C-493.41594772 176.97927561 -499.98020387 180.59152753 -508.03466797 186.05029297 C-510.35008831 187.94902357 -512.10117841 189.74084711 -514.03466797 192.05029297 C-514.03466797 192.71029297 -514.03466797 193.37029297 -514.03466797 194.05029297 C-497.27615129 197.6599545 -480.4636873 200.88266436 -463.59033203 203.9074707 C-459.66983131 204.61096925 -455.75065168 205.32150727 -451.83154297 206.03271484 C-444.23820233 207.40490416 -436.63871331 208.73881059 -429.03466797 210.05029297 C-427.84836792 210.25676453 -426.66206787 210.46323608 -425.43981934 210.67596436 C-412.17220979 212.95918127 -399.4903799 214.70763112 -386.03466797 214.05029297 C-384.0774997 213.97217133 -382.12030335 213.89475161 -380.16308594 213.81787109 C-373.26327343 213.52999219 -366.36793962 213.17146048 -359.47216797 212.80029297 C-358.23343933 212.73437958 -356.99471069 212.66846619 -355.71844482 212.60055542 C-325.50468772 210.97695851 -295.15457847 209.24615011 -265.15966797 205.11279297 C-264.1388916 204.97945557 -263.11811523 204.84611816 -262.06640625 204.70874023 C-250.69989167 202.96237868 -242.45415285 197.26769376 -233.53466797 190.30029297 C-232.15927856 189.23621216 -232.15927856 189.23621216 -230.75610352 188.15063477 C-218.79392419 179.78067002 -218.79392419 179.78067002 -211.03466797 168.05029297 C-215.89959598 168.05029297 -216.73734856 169.08116204 -220.34716797 172.17529297 Z M147.96533203 216.05029297 C146.94947021 216.25628113 145.9336084 216.46226929 144.88696289 216.67449951 C118.86120181 221.96700422 92.92489667 227.6296756 67.15283203 234.05029297 C66.24348907 234.27558685 65.33414612 234.50088074 64.39724731 234.73300171 C46.27077035 238.92219597 46.27077035 238.92219597 30.09033203 247.67529297 C29.51299316 248.10479248 28.9356543 248.53429199 28.34082031 248.97680664 C27.1425859 249.87214588 25.949031 250.7737821 24.76025391 251.68164062 C22.96023698 253.05417801 21.1444686 254.40329952 19.32470703 255.74951172 C14.28153099 259.52391185 9.85167679 263.04578093 5.96533203 268.05029297 C20.17666937 265.81905736 34.30848699 263.26476446 48.42626953 260.51123047 C49.25243019 260.35012472 50.07859085 260.18901897 50.92978668 260.02303123 C54.37745123 259.35022448 57.82494765 258.67656379 61.27225876 258.00194836 C120.83733603 246.34726999 180.59319133 234.85087591 241.05712891 228.93530273 C241.95496094 228.8430542 242.85279297 228.75080566 243.77783203 228.65576172 C244.90125 228.54977661 244.90125 228.54977661 246.04736328 228.44165039 C248.28266995 228.111121 248.28266995 228.111121 250.96533203 226.05029297 C249.11596326 221.47044255 246.53483433 220.37801546 242.20361328 218.34716797 C238.3815305 216.81649067 234.53251146 215.54452047 230.59033203 214.36279297 C229.91993896 214.16049072 229.2495459 213.95818848 228.55883789 213.74975586 C201.71555647 206.09072809 174.71241112 210.60501239 147.96533203 216.05029297 Z M-251.93896484 298.06005859 C-252.89598297 298.16734787 -253.8530011 298.27463715 -254.83901978 298.38517761 C-257.97764343 298.73809379 -261.11551589 299.0972725 -264.25341797 299.45654297 C-266.4391245 299.7035535 -268.62487554 299.95017049 -270.81066895 300.19641113 C-276.54524995 300.84350636 -282.27921283 301.49592699 -288.01306152 302.1494751 C-293.87146079 302.81625918 -299.73043147 303.47798205 -305.58935547 304.14013672 C-317.07168976 305.4385817 -328.55337713 306.74265586 -340.03466797 308.05029297 C-340.03466797 308.38029297 -340.03466797 308.71029297 -340.03466797 309.05029297 C-324.33680245 309.15831564 -308.65997738 308.84072049 -292.96758175 308.44450569 C-289.54575322 308.35864221 -286.12385565 308.27561856 -282.70196533 308.19226074 C-276.25687613 308.03484237 -269.81185051 307.87496456 -263.36684537 307.71414518 C-256.01469507 307.53081438 -248.66247607 307.35031356 -241.31025076 307.1700201 C-226.21831278 306.79986924 -211.12646219 306.42626311 -196.03466797 306.05029297 C-196.03466797 305.72029297 -196.03466797 305.39029297 -196.03466797 305.05029297 C-201.29773909 303.90042967 -206.5630172 302.76149627 -211.83056641 301.63232422 C-213.61961447 301.24724923 -215.4080407 300.85927273 -217.19580078 300.46826172 C-219.77589689 299.9044949 -222.35810059 299.35144072 -224.94091797 298.80029297 C-225.7308313 298.62530273 -226.52074463 298.4503125 -227.33459473 298.27001953 C-228.09477905 298.10985352 -228.85496338 297.9496875 -229.63818359 297.78466797 C-230.62413513 297.57148926 -230.62413513 297.57148926 -231.63000488 297.35400391 C-238.44444328 296.4933347 -245.15924087 297.27440999 -251.93896484 298.06005859 Z " fill="#0A0A0A" transform="translate(545.03466796875,-0.05029296875)"/>
<path d="M0 0 C11.01198506 6.88249066 14.78875537 24.14766053 18 35.875 C20.64762477 47.68197535 20.64762477 47.68197535 17.9296875 52.94921875 C12.62990932 59.51401936 5.029184 64.31957251 -2 68.875 C-2.59272705 69.26260498 -3.1854541 69.65020996 -3.79614258 70.04956055 C-7.55800577 72.37250464 -10.27419936 73.37007592 -14.6875 73.1875 C-16.05455078 73.15076172 -16.05455078 73.15076172 -17.44921875 73.11328125 C-19.7445802 72.89886004 -21.77863163 72.46047008 -24 71.875 C-24.80881114 49.29568902 -22.0158611 21.50825627 -7.49609375 2.953125 C-5.01789778 0.54610437 -3.45332425 -0.14388851 0 0 Z " fill="#0A0A0A" transform="translate(412,192.125)"/>
<path d="M0 0 C3.36741571 1.38127597 4.71612365 2.65240326 6.40234375 5.859375 C6.81556885 6.63909668 7.22879395 7.41881836 7.65454102 8.22216797 C8.28960571 9.47344482 8.28960571 9.47344482 8.9375 10.75 C9.59673462 12.02641357 9.59673462 12.02641357 10.26928711 13.32861328 C17.04703332 26.71821241 22.70961472 40.98344777 19.28125 56.1875 C16.94629271 63.26769308 16.94629271 63.26769308 13.66796875 65.8046875 C7.1227971 68.73707773 -0.14264635 66.15457176 -6.5625 63.8125 C-12.41346573 61.40532504 -17.74141576 58.50572283 -23 55 C-24.5159375 54.0409375 -24.5159375 54.0409375 -26.0625 53.0625 C-28.87465964 50.0689107 -28.9098117 48.08716966 -29 44 C-27.82677491 40.95036564 -26.11313827 38.34102489 -24.3125 35.625 C-23.57060425 34.46013062 -23.57060425 34.46013062 -22.8137207 33.27172852 C-17.88245026 25.61367367 -12.60123799 18.19778173 -7.28466797 10.8046875 C-4.76474282 7.26472424 -2.36677827 3.64359286 0 0 Z " fill="#0A0A0A" transform="translate(430,251)"/>
<path d="M0 0 C22.79302289 -1.17894946 47.29136484 10.51385328 67 21 C69 23 69 23 69 26 C61.99757448 28.11670277 55.30696249 29.54034292 48 30 C47.8865625 30.72832031 47.773125 31.45664062 47.65625 32.20703125 C45.00739899 43.480415 34.82651655 53.27932842 25.82421875 59.94140625 C23.87191673 61.07432669 22.22760978 61.65327182 20 62 C18.31006113 60.31006113 18.86654714 58.19561089 18.81274414 55.93701172 C18.54503474 46.87239209 16.64029153 39.3386741 13 31 C12.43104004 29.68563965 12.43104004 29.68563965 11.85058594 28.34472656 C7.01857337 16.51813226 7.01857337 16.51813226 0.62890625 5.53125 C0.09136719 4.6959375 -0.44617188 3.860625 -1 3 C-0.67 2.01 -0.34 1.02 0 0 Z " fill="#0A0A0A" transform="translate(445,249)"/>
<path d="M0 0 C30.74035401 0.35977007 30.74035401 0.35977007 41.3125 8.8125 C44.38973512 12.06069262 45.04254375 14.20983036 44.9609375 18.72265625 C43.34740269 28.70442554 36.04704945 36.88198996 29.5625 44.1875 C28.68728514 45.19642824 27.81228901 46.20554625 26.9375 47.21484375 C17.68998669 57.68710213 17.68998669 57.68710213 11.4375 58.6875 C8.5625 58.1875 8.5625 58.1875 6.9140625 56.36328125 C4.88719152 51.60072025 5.11810279 46.99998879 5.0625 41.875 C4.92417194 23.36339892 4.92417194 23.36339892 -2.25390625 6.765625 C-3.57701728 5.00147696 -4.49842756 3.17816047 -5.4375 1.1875 C-3.83979274 -0.41020726 -2.21998056 0.01689483 0 0 Z " fill="#0A0A0A" transform="translate(430.4375,173.8125)"/>
<path d="M0 0 C3 1 3 1 3.93554688 2.7590332 C4.19400391 3.51531006 4.45246094 4.27158691 4.71875 5.05078125 C5.00999756 5.88891357 5.30124512 6.7270459 5.60131836 7.59057617 C5.8978833 8.48881104 6.19444824 9.3870459 6.5 10.3125 C6.80752197 11.22298096 7.11504395 12.13346191 7.43188477 13.0715332 C14.31417995 33.7294275 14.31417995 33.7294275 13 42 C11.27310955 45.28931514 10.5579199 45.8140267 7 47 C-7.63072499 48.22930334 -26.05064843 46.32053604 -39 39 C-41 37 -41 37 -41.3125 33.875 C-40.58603688 30.05521005 -38.71369605 28.66423436 -35.625 26.4375 C-34.05929244 25.38755493 -32.49285035 24.33864961 -30.91943359 23.30029297 C-27.00852714 20.65090505 -23.23517532 17.80800959 -19.4375 15 C-18.61266113 14.39526855 -17.78782227 13.79053711 -16.93798828 13.16748047 C-11.73273273 9.33821929 -6.69015708 5.40197589 -1.8125 1.16015625 C-1.214375 0.77730469 -0.61625 0.39445313 0 0 Z " fill="#0A0A0A" transform="translate(489,205)"/>
<path d="M0 0 C10.66753853 0.16230003 21.67574931 0.87280179 30.33203125 7.890625 C32.81253492 11.02756173 32.55440647 13.20791385 32.3828125 17.0859375 C30.92101986 28.21346106 26.85572943 38.35119551 18 45.5 C14.74406045 47.75603489 12.04099779 48.90143908 8 49 C7.67 48.67 7.34 48.34 7 48 C7.11088607 43.47073034 7.58898976 39.14169511 9.125 34.875 C11.3241469 27.64923161 8.03329807 21.03742473 5 14.5625 C4.63132812 13.74845703 4.26265625 12.93441406 3.8828125 12.09570312 C2.3414649 8.28687905 2.3414649 8.28687905 0 5 C-0.04063832 3.33382885 -0.042721 1.66611905 0 0 Z " fill="#0A0A0A" transform="translate(848,200)"/>
<path d="M0 0 C0.66 0.33 1.32 0.66 2 1 C2.65976834 3.43327405 3.18130516 5.77551532 3.625 8.25 C3.75688721 8.96349609 3.88877441 9.67699219 4.0246582 10.41210938 C5.149636 16.95690588 5.30666071 23.36704252 5 30 C0.08594059 32.91227343 -4.71899516 32.08662132 -10.25 31.8125 C-11.26191406 31.78091797 -12.27382813 31.74933594 -13.31640625 31.71679688 C-19.4916116 31.44047446 -24.3443102 30.50988148 -30 28 C-30 26.68 -30 25.36 -30 24 C-28.55859375 22.75390625 -28.55859375 22.75390625 -26.4375 21.5625 C-19.58377114 17.31971547 -13.7757028 11.85626929 -7.75634766 6.53466797 C-5.2091778 4.30899245 -2.60928937 2.15236312 0 0 Z " fill="#0A0A0A" transform="translate(877,161)"/>
<path d="M0 0 C1.05832031 -0.01417969 2.11664062 -0.02835938 3.20703125 -0.04296875 C6.13473808 0.18342011 7.76268549 0.57660924 10.1875 2.1875 C12.29080713 6.39411425 11.64653531 10.64522716 10.3515625 14.99609375 C6.7878251 24.19244966 1.56784596 33.60060269 -6.8125 39.1875 C-7.8025 38.8575 -8.7925 38.5275 -9.8125 38.1875 C-9.35407837 34.52012694 -8.81933052 31.21082689 -7.77734375 27.65234375 C-6.43030214 22.37071607 -6.63219543 17.16544042 -6.75 11.75 C-6.78425302 9.77220529 -6.81443426 7.79433434 -6.83984375 5.81640625 C-6.85781006 4.95088135 -6.87577637 4.08535645 -6.89428711 3.19360352 C-6.72128761 -1.04979025 -3.53156989 0.02135169 0 0 Z " fill="#0A0A0A" transform="translate(853.8125,139.8125)"/>
</svg>
